<?xml version="1.0" encoding="utf-8"?>
<!-- Generator: Adobe Illustrator 18.1.1, SVG Export Plug-In . SVG Version: 6.00 Build 0)  -->
<svg version="1.1" id="Layer_1" xmlns="http://www.w3.org/2000/svg" xmlns:xlink="http://www.w3.org/1999/xlink" x="0px" y="0px"
	 viewBox="179 12 408 28" enable-background="new 179 12 408 28" xml:space="preserve">
<title>Untitled 2</title>
<desc>Created with Sketch.</desc>
<g id="Page-1">
	<g id="logo" transform="translate(0.000000, 1.000000)">
		<g id="Group-7" transform="translate(0.000000, 3.000000)">
			<path id="Fill-1" fill="#AA8230" d="M203.2,22.1l-11.2-4.4c-2.4,1.3-4.4,2.8-6,4.4c1.6,1.5,3.6,3.1,6,4.4L203.2,22.1z"/>
			<path id="Fill-3" fill="#8A8E8F" d="M179.9,13c0,0,1.2,3.9,5.1,8c1.7-1.3,3.8-2.5,6.3-3.6L179.9,13z"/>
			<path id="Fill-5" fill="#9B8B6B" d="M179.9,31.2c0,0,1.2-3.8,5.1-8c1.7,1.3,3.8,2.5,6.3,3.6L179.9,31.2z"/>
		</g>
		<g id="Group-17" transform="translate(212.000000, 6.000000)">
			<g enable-background="new    ">
				<path fill="#939494" d="M190.8,25.3h-1.6l-2.7-9.5l-2.7,9.5h-1.6l-2.4-11.8h1.4l1.9,9.6l2.7-9.5h1.3l2.7,9.5l1.9-9.6h1.4
					L190.8,25.3z"/>
			</g>
			<g enable-background="new    ">
				<path fill="#939494" d="M196.3,25.3V13.5h7.9v1.4h-6.4v3.6h5.6v1.4h-5.6v4.1h6.4v1.4H196.3z"/>
			</g>
			<g enable-background="new    ">
				<path fill="#939494" d="M215,25.3l-1-2.8h-5.1l-1,2.8h-1.5l4.2-11.8h1.7l4.2,11.8H215z M211.5,15l-2.1,6.1h4.2L211.5,15z"/>
			</g>
			<g enable-background="new    ">
				<path fill="#939494" d="M219.5,25.3V13.5h1.5v10.4h5.7v1.4H219.5z"/>
			</g>
			<g enable-background="new    ">
				<path fill="#939494" d="M231.9,14.9v10.4h-1.5V14.9h-3.5v-1.4h8.5v1.4H231.9z"/>
			</g>
			<g enable-background="new    ">
				<path fill="#939494" d="M245.6,25.3v-5.5h-5.7v5.5h-1.5V13.5h1.5v4.9h5.7v-4.9h1.5v11.8H245.6z"/>
			</g>
			<g enable-background="new    ">
				<path fill="#939494" d="M265.2,25.3v-10l-3.7,9.8h-1.2l-3.7-9.9v10.1h-1.4V13.5h2.1l3.6,9.6l3.6-9.6h2.1v11.8H265.2z"/>
			</g>
			<g enable-background="new    ">
				<path fill="#939494" d="M277.4,25.3l-1-2.8h-5.1l-1,2.8h-1.5l4.2-11.8h1.7l4.2,11.8H277.4z M273.9,15l-2.1,6.1h4.2L273.9,15z"/>
			</g>
			<g enable-background="new    ">
				<path fill="#939494" d="M288.8,25.3l-5.8-9.5v9.5h-1.4V13.5h1.7l5.8,9.5v-9.5h1.4v11.8H288.8z"/>
			</g>
			<g enable-background="new    ">
				<path fill="#939494" d="M301.3,25.3l-1-2.8h-5.1l-1,2.8h-1.5l4.2-11.8h1.7l4.2,11.8H301.3z M297.8,15l-2.1,6.1h4.2L297.8,15z"/>
			</g>
			<g enable-background="new    ">
				<path fill="#939494" d="M312.3,25.3l-0.2-1.4c-0.6,1-1.9,1.7-3.2,1.7c-1.2,0-2.3-0.4-3.2-1.2c-1.2-1.2-1.5-2.8-1.5-4.9
					c0-1.9,0.3-3.6,1.5-4.9c0.9-0.8,2-1.3,3.2-1.3c1.3,0,2.6,0.5,3.4,1.3c0.6,0.6,1,1.4,1,2.3h-1.6c-0.1-0.6-0.2-0.9-0.5-1.3
					c-0.5-0.6-1.4-0.9-2.3-0.9c-0.8,0-1.6,0.3-2.2,0.9c-1,1-1,2.6-1,3.8c0,1.2,0.1,2.9,1.1,3.9c0.6,0.6,1.3,0.9,2.1,0.9
					c0.8,0,1.6-0.3,2.2-0.8c0.8-0.8,1-1.9,1-3h-3.2v-1.4h4.5v6.4H312.3z"/>
			</g>
			<g enable-background="new    ">
				<path fill="#939494" d="M316.9,25.3V13.5h7.9v1.4h-6.4v3.6h5.6v1.4h-5.6v4.1h6.4v1.4H316.9z"/>
			</g>
			<g enable-background="new    ">
				<path fill="#939494" d="M338.4,25.3v-10l-3.7,9.8h-1.2l-3.7-9.9v10.1h-1.4V13.5h2.1l3.6,9.6l3.6-9.6h2.1v11.8H338.4z"/>
			</g>
			<g enable-background="new    ">
				<path fill="#939494" d="M343.2,25.3V13.5h7.9v1.4h-6.4v3.6h5.6v1.4h-5.6v4.1h6.4v1.4H343.2z"/>
			</g>
			<g enable-background="new    ">
				<path fill="#939494" d="M361.4,25.3l-5.8-9.5v9.5h-1.4V13.5h1.7l5.8,9.5v-9.5h1.4v11.8H361.4z"/>
			</g>
			<g enable-background="new    ">
				<path fill="#939494" d="M371.1,14.9v10.4h-1.5V14.9H366v-1.4h8.5v1.4H371.1z"/>
			</g>
		</g>
		<path id="Stroke-11" fill="none" stroke="#828383" stroke-width="0.5" d="M377,12v25.7"/>
	</g>
	<g id="Fill-1_1_" transform="translate(41.000000, 6.000000)">
		<path fill="#4B4B4B" d="M261.8,26.2h-5.2v-5.5h3.9v1.7h1.3v-4.5h-1.3v1.6h-3.9v-5.2h5V16h1.3v-3.7h-1.3v0.6h-9.1V14h1.7v12.4h-1.7
			v1.1h10.6v-3.2h-1.3V26.2L261.8,26.2z M317.9,12.9V14h1.7v9.2l-7.7-10.3H308V14h1.6l0.5,0.7v11.6h-1.7v1.1h4.8v-1.1h-1.7v-9.8
			l8.3,11.1h1.2V14h1.7v-1.1H317.9L317.9,12.9z M298.7,12.7c-4.1,0-7.4,3.4-7.4,7.5c0,4.1,3.3,7.5,7.4,7.5c4.1,0,7.4-3.4,7.4-7.5
			C306.1,16,302.8,12.7,298.7,12.7L298.7,12.7z M298.7,26.3c-2.8,0-4.7-2.5-4.7-6.1c0-3.6,1.9-6.1,4.7-6.1c2.7,0,4.6,2.5,4.6,6.1
			C303.3,23.8,301.4,26.3,298.7,26.3L298.7,26.3z M240.4,23.4l-5-10.4h-4.2V14h1.7v12.4h-1.7v1.1h4.8v-1.1h-1.7V16.3l5.6,11.6
			l5.3-11.3v9.8h-1.7v1.1h5.8v-1.1h-1.7V14h1.7v-1.1h-4L240.4,23.4L240.4,23.4z M275.7,26.2h-4.9V14h1.7v-1.1h-5.8V14h1.7v12.4h-1.7
			v1.1H277v-3.2h-1.3V26.2L275.7,26.2z M288.5,26.2h-4.9V14h1.7v-1.1h-5.8V14h1.7v12.4h-1.7v1.1h10.4v-3.2h-1.3V26.2L288.5,26.2z
			 M218,14h1.9l-3.2,5.2l-3.4-5.2h1.7v-1.1h-6V14h1.3l4.5,6.8v5.6h-1.7v1.1h5.8v-1.1h-1.7v-5.7l4.2-6.7h1.2v-1.1H218V14L218,14z
			 M187.5,19.8c1.4-0.4,2.7-1.5,2.7-3.2c0-2.2-1.7-3.7-4.3-3.7H179V14h1.7v12.4H179v1.1h7.2c2.8,0,4.7-1.5,4.7-3.9
			C190.9,21.3,189.2,20.2,187.5,19.8L187.5,19.8z M183.2,14.2h1.8c1,0,2.6,0.3,2.6,2.5c0,1.8-1.4,2.6-2.7,2.6h-1.7V14.2L183.2,14.2z
			 M185.1,26.2h-1.9v-5.7h1.9c2,0,3.3,1.2,3.3,2.9C188.4,25.5,186.6,26.2,185.1,26.2L185.1,26.2z M203.1,14h1.7v9.2L197,12.9h-3.9
			V14h1.6l0.5,0.7v11.6h-1.7v1.1h4.8v-1.1h-1.7v-9.8l8.3,11.1h1.2V14h1.7v-1.1h-4.7V14L203.1,14z"/>
	</g>
</g>
</svg>
